<mxfile host="app.diagrams.net" agent="Mozilla/5.0 (Macintosh; Intel Mac OS X 10_15_7) AppleWebKit/605.1.15 (KHTML, like Gecko) Version/18.3.1 Safari/605.1.15" version="26.1.3">
  <diagram name="Страница — 1" id="JkcFzQEGHjUgy1jwSOf_">
    <mxGraphModel dx="954" dy="647" grid="1" gridSize="10" guides="1" tooltips="1" connect="1" arrows="1" fold="1" page="1" pageScale="1" pageWidth="827" pageHeight="1169" math="0" shadow="0">
      <root>
        <mxCell id="0" />
        <mxCell id="1" parent="0" />
        <mxCell id="nF9ozvn-U_tGqOO9mvAR-1" value="" style="rounded=0;whiteSpace=wrap;html=1;" vertex="1" parent="1">
          <mxGeometry x="210" y="140" width="480" height="390" as="geometry" />
        </mxCell>
        <mxCell id="nF9ozvn-U_tGqOO9mvAR-5" value="" style="edgeStyle=orthogonalEdgeStyle;rounded=0;orthogonalLoop=1;jettySize=auto;html=1;" edge="1" parent="1" source="nF9ozvn-U_tGqOO9mvAR-2" target="nF9ozvn-U_tGqOO9mvAR-4">
          <mxGeometry relative="1" as="geometry" />
        </mxCell>
        <mxCell id="nF9ozvn-U_tGqOO9mvAR-2" value="AuthUser" style="shape=umlActor;verticalLabelPosition=bottom;verticalAlign=top;html=1;outlineConnect=0;" vertex="1" parent="1">
          <mxGeometry x="110" y="210" width="30" height="60" as="geometry" />
        </mxCell>
        <mxCell id="nF9ozvn-U_tGqOO9mvAR-4" value="User" style="shape=umlActor;verticalLabelPosition=bottom;verticalAlign=top;html=1;outlineConnect=0;" vertex="1" parent="1">
          <mxGeometry x="110" y="350" width="30" height="60" as="geometry" />
        </mxCell>
        <mxCell id="nF9ozvn-U_tGqOO9mvAR-6" value="Зайти в раздел купленных фильмов и посмотреть его" style="ellipse;whiteSpace=wrap;html=1;" vertex="1" parent="1">
          <mxGeometry x="250" y="160" width="150" height="80" as="geometry" />
        </mxCell>
        <mxCell id="nF9ozvn-U_tGqOO9mvAR-8" value="Смотреть фильмы" style="ellipse;whiteSpace=wrap;html=1;" vertex="1" parent="1">
          <mxGeometry x="280" y="260" width="120" height="80" as="geometry" />
        </mxCell>
        <mxCell id="nF9ozvn-U_tGqOO9mvAR-9" value="Смотреть сериалы" style="ellipse;whiteSpace=wrap;html=1;" vertex="1" parent="1">
          <mxGeometry x="310" y="350" width="120" height="80" as="geometry" />
        </mxCell>
        <mxCell id="nF9ozvn-U_tGqOO9mvAR-10" value="Смотреть аниме" style="ellipse;whiteSpace=wrap;html=1;" vertex="1" parent="1">
          <mxGeometry x="280" y="440" width="126" height="80" as="geometry" />
        </mxCell>
        <mxCell id="nF9ozvn-U_tGqOO9mvAR-11" value="Возможность приобрести подписку" style="ellipse;whiteSpace=wrap;html=1;" vertex="1" parent="1">
          <mxGeometry x="470" y="420" width="120" height="80" as="geometry" />
        </mxCell>
        <mxCell id="nF9ozvn-U_tGqOO9mvAR-12" value="" style="endArrow=none;html=1;rounded=0;entryX=0;entryY=0.5;entryDx=0;entryDy=0;" edge="1" parent="1" source="nF9ozvn-U_tGqOO9mvAR-2" target="nF9ozvn-U_tGqOO9mvAR-6">
          <mxGeometry width="50" height="50" relative="1" as="geometry">
            <mxPoint x="180" y="280" as="sourcePoint" />
            <mxPoint x="230" y="230" as="targetPoint" />
          </mxGeometry>
        </mxCell>
        <mxCell id="nF9ozvn-U_tGqOO9mvAR-13" value="" style="endArrow=none;html=1;rounded=0;entryX=0;entryY=0.5;entryDx=0;entryDy=0;" edge="1" parent="1" source="nF9ozvn-U_tGqOO9mvAR-4" target="nF9ozvn-U_tGqOO9mvAR-8">
          <mxGeometry width="50" height="50" relative="1" as="geometry">
            <mxPoint x="50" y="600" as="sourcePoint" />
            <mxPoint x="100" y="550" as="targetPoint" />
          </mxGeometry>
        </mxCell>
        <mxCell id="nF9ozvn-U_tGqOO9mvAR-14" value="" style="endArrow=classic;html=1;rounded=0;exitX=0;exitY=0.5;exitDx=0;exitDy=0;dashed=1;" edge="1" parent="1" source="nF9ozvn-U_tGqOO9mvAR-16" target="nF9ozvn-U_tGqOO9mvAR-8">
          <mxGeometry width="50" height="50" relative="1" as="geometry">
            <mxPoint x="440" y="310" as="sourcePoint" />
            <mxPoint x="790" y="220" as="targetPoint" />
          </mxGeometry>
        </mxCell>
        <mxCell id="nF9ozvn-U_tGqOO9mvAR-17" value="extends" style="edgeLabel;html=1;align=center;verticalAlign=middle;resizable=0;points=[];" vertex="1" connectable="0" parent="nF9ozvn-U_tGqOO9mvAR-14">
          <mxGeometry x="0.12" y="-1" relative="1" as="geometry">
            <mxPoint x="6" as="offset" />
          </mxGeometry>
        </mxCell>
        <mxCell id="nF9ozvn-U_tGqOO9mvAR-16" value="Найти фильм с помощью поиска" style="ellipse;whiteSpace=wrap;html=1;" vertex="1" parent="1">
          <mxGeometry x="500" y="180" width="120" height="80" as="geometry" />
        </mxCell>
        <mxCell id="nF9ozvn-U_tGqOO9mvAR-18" value="" style="endArrow=none;html=1;rounded=0;entryX=0;entryY=0.5;entryDx=0;entryDy=0;" edge="1" parent="1" source="nF9ozvn-U_tGqOO9mvAR-4" target="nF9ozvn-U_tGqOO9mvAR-9">
          <mxGeometry width="50" height="50" relative="1" as="geometry">
            <mxPoint x="120" y="530" as="sourcePoint" />
            <mxPoint x="170" y="480" as="targetPoint" />
          </mxGeometry>
        </mxCell>
        <mxCell id="nF9ozvn-U_tGqOO9mvAR-19" value="" style="endArrow=none;html=1;rounded=0;entryX=0;entryY=0.5;entryDx=0;entryDy=0;" edge="1" parent="1" source="nF9ozvn-U_tGqOO9mvAR-4" target="nF9ozvn-U_tGqOO9mvAR-10">
          <mxGeometry width="50" height="50" relative="1" as="geometry">
            <mxPoint x="170" y="630" as="sourcePoint" />
            <mxPoint x="220" y="580" as="targetPoint" />
          </mxGeometry>
        </mxCell>
        <mxCell id="nF9ozvn-U_tGqOO9mvAR-20" value="" style="endArrow=none;html=1;rounded=0;entryX=0;entryY=0.5;entryDx=0;entryDy=0;" edge="1" parent="1" source="nF9ozvn-U_tGqOO9mvAR-4" target="nF9ozvn-U_tGqOO9mvAR-11">
          <mxGeometry width="50" height="50" relative="1" as="geometry">
            <mxPoint x="140" y="630" as="sourcePoint" />
            <mxPoint x="190" y="580" as="targetPoint" />
          </mxGeometry>
        </mxCell>
        <mxCell id="nF9ozvn-U_tGqOO9mvAR-21" value="Пролистать главную страницу в поисках рекомендаций" style="ellipse;whiteSpace=wrap;html=1;" vertex="1" parent="1">
          <mxGeometry x="470" y="290" width="160" height="80" as="geometry" />
        </mxCell>
        <mxCell id="nF9ozvn-U_tGqOO9mvAR-22" value="" style="endArrow=none;html=1;rounded=0;entryX=0;entryY=0.5;entryDx=0;entryDy=0;" edge="1" parent="1" source="nF9ozvn-U_tGqOO9mvAR-4" target="nF9ozvn-U_tGqOO9mvAR-21">
          <mxGeometry width="50" height="50" relative="1" as="geometry">
            <mxPoint x="10" y="580" as="sourcePoint" />
            <mxPoint x="60" y="530" as="targetPoint" />
          </mxGeometry>
        </mxCell>
      </root>
    </mxGraphModel>
  </diagram>
</mxfile>
